<?xml version="1.0" encoding="UTF-8" standalone="no"?>
<!DOCTYPE svg PUBLIC "-//W3C//DTD SVG 1.1//EN" "http://www.w3.org/Graphics/SVG/1.1/DTD/svg11.dtd">
<svg width="100%" height="100%" viewBox="0 0 956 599" version="1.1" xmlns="http://www.w3.org/2000/svg" xmlns:xlink="http://www.w3.org/1999/xlink" xml:space="preserve" xmlns:serif="http://www.serif.com/" style="fill-rule:evenodd;clip-rule:evenodd;stroke-linejoin:round;stroke-miterlimit:2;">
    <g>
        <path d="M907.98,249.46C911.23,292.59 902.21,342.86 885.55,394.07L884.4,397.32L798.51,397.32L799.44,395.2C813.11,354.28 819.06,315.19 816.37,281.2L907.97,249.46L907.98,249.46Z" style="fill:rgb(2,105,57);fill-rule:nonzero;"/>
        <path d="M872.79,140.03C890.23,166.09 902.38,199.4 907.09,237.54L815.25,270.42C811.5,240.87 800.55,214.47 788.04,193.32L872.8,140.03L872.79,140.03Z" style="fill:rgb(2,105,57);fill-rule:nonzero;"/>
        <path d="M811.8,72.28C833.22,87.07 850.35,108.27 866.55,130.11L782.36,184.25C770.31,166.83 754.34,152.31 738.14,140.6L811.79,72.28L811.8,72.28Z" style="fill:rgb(21,153,79);fill-rule:nonzero;"/>
        <path d="M741.54,35.15C750.61,38.55 742.73,35.33 765.35,44.22C777.26,49.89 790.33,57.05 801.76,64.55L728.34,134C714.77,124.34 698.14,117.08 682.86,110.29L741.54,35.15Z" style="fill:rgb(104,183,99);fill-rule:nonzero;"/>
        <path d="M671.24,17.01C691.84,19.07 710.6,24.89 729.26,30.89L671.8,106.01C657.98,100.92 641.97,97.94 627.01,95.13L671.23,17L671.24,17.01Z" style="fill:rgb(166,203,108);fill-rule:nonzero;"/>
        <path d="M598.39,13.89C615.11,13.61 613.7,13.04 658.24,15.41L614.27,92.69C599.81,90.42 584.89,90.04 569.77,89.59L598.4,13.88L598.39,13.89Z" style="fill:rgb(216,226,142);fill-rule:nonzero;"/>
        <path d="M585.64,14.46L557.01,89.86L547.37,90.43C517.89,92.41 534.33,90.43 512.5,92.41L526.11,23.81C545.39,19.84 566.23,16 585.64,14.46" style="fill:rgb(251,246,193);fill-rule:nonzero;"/>
        <path d="M118.86,254.55L144.29,265.6C106.31,305.28 71.66,346.88 42.81,397.32L33.74,397.32C53.42,346.32 82.8,297.22 118.87,254.55" style="fill:rgb(166,24,41);fill-rule:nonzero;"/>
        <path d="M513.65,25.37L500.6,93.54C471.69,96.38 489.53,94.46 446.18,99.78L444.76,42.52C468.22,35.61 490.96,28.91 513.65,25.37" style="fill:rgb(255,224,140);fill-rule:nonzero;"/>
        <path d="M433.04,45.91L435.4,101.48C413.13,105.89 389.44,112.57 365.95,120.75L352,76.84C379.28,64.49 406.62,53.19 433.04,45.9" style="fill:rgb(247,172,98);fill-rule:nonzero;"/>
        <path d="M341.15,81.5L355.47,124.73C326.56,135.5 297.64,151.38 268.16,169.23L242.08,138.41C274.77,114.65 308.52,97.86 341.15,81.5" style="fill:rgb(237,110,68);fill-rule:nonzero;"/>
        <path d="M233.01,145.7L259.09,175.18C223.44,196.69 186.57,224.44 152.22,255.97L125.86,244.77C159.99,208.03 196.3,172.63 233.01,145.7" style="fill:rgb(214,49,38);fill-rule:nonzero;"/>
        <g transform="matrix(1,0,0,1,232.29,543.33)">
            <g transform="matrix(161.27,0,0,161.27,0,0)">
                <path d="M0.622,-0.502C0.577,-0.557 0.521,-0.585 0.454,-0.585C0.425,-0.585 0.398,-0.58 0.373,-0.569C0.347,-0.558 0.326,-0.544 0.308,-0.526C0.29,-0.507 0.276,-0.485 0.266,-0.46C0.255,-0.435 0.25,-0.407 0.25,-0.378C0.25,-0.348 0.255,-0.32 0.266,-0.295C0.276,-0.27 0.29,-0.248 0.309,-0.229C0.327,-0.21 0.348,-0.196 0.373,-0.185C0.398,-0.174 0.424,-0.169 0.453,-0.169C0.516,-0.169 0.572,-0.196 0.622,-0.249L0.622,-0.017L0.602,-0.01C0.572,0.001 0.544,0.009 0.518,0.014C0.492,0.019 0.466,0.021 0.441,0.021C0.389,0.021 0.339,0.011 0.292,-0.009C0.244,-0.028 0.202,-0.056 0.166,-0.092C0.129,-0.127 0.1,-0.169 0.078,-0.219C0.056,-0.268 0.045,-0.321 0.045,-0.379C0.045,-0.437 0.056,-0.49 0.078,-0.539C0.099,-0.587 0.128,-0.628 0.165,-0.664C0.201,-0.699 0.243,-0.726 0.291,-0.746C0.339,-0.765 0.389,-0.775 0.442,-0.775C0.472,-0.775 0.501,-0.772 0.531,-0.766C0.56,-0.759 0.59,-0.749 0.622,-0.736L0.622,-0.502Z" style="fill:rgb(64,64,64);fill-rule:nonzero;"/>
            </g>
            <g transform="matrix(161.27,0,0,161.27,107.567,0)">
                <path d="M0.233,-0.259C0.233,-0.242 0.236,-0.226 0.243,-0.212C0.249,-0.197 0.257,-0.185 0.268,-0.174C0.278,-0.163 0.29,-0.155 0.305,-0.149C0.319,-0.143 0.334,-0.14 0.35,-0.14C0.366,-0.14 0.381,-0.143 0.396,-0.149C0.41,-0.155 0.422,-0.163 0.433,-0.174C0.443,-0.185 0.451,-0.197 0.458,-0.212C0.464,-0.226 0.467,-0.241 0.467,-0.258C0.467,-0.274 0.464,-0.289 0.458,-0.304C0.451,-0.318 0.443,-0.33 0.433,-0.341C0.422,-0.352 0.41,-0.36 0.396,-0.366C0.381,-0.372 0.366,-0.375 0.35,-0.375C0.334,-0.375 0.319,-0.372 0.305,-0.366C0.29,-0.36 0.278,-0.352 0.268,-0.341C0.257,-0.33 0.249,-0.318 0.243,-0.304C0.236,-0.29 0.233,-0.275 0.233,-0.259ZM0.042,-0.261C0.042,-0.299 0.05,-0.335 0.065,-0.368C0.08,-0.401 0.102,-0.429 0.129,-0.454C0.156,-0.478 0.189,-0.497 0.227,-0.511C0.264,-0.525 0.305,-0.532 0.35,-0.532C0.394,-0.532 0.435,-0.525 0.473,-0.512C0.51,-0.498 0.543,-0.479 0.571,-0.455C0.598,-0.43 0.62,-0.401 0.635,-0.368C0.65,-0.334 0.658,-0.297 0.658,-0.256C0.658,-0.215 0.65,-0.178 0.635,-0.145C0.619,-0.111 0.597,-0.082 0.57,-0.058C0.543,-0.033 0.51,-0.014 0.472,-0.001C0.433,0.012 0.392,0.019 0.347,0.019C0.303,0.019 0.262,0.012 0.225,-0.001C0.188,-0.014 0.156,-0.033 0.129,-0.058C0.101,-0.083 0.08,-0.112 0.065,-0.147C0.05,-0.181 0.042,-0.219 0.042,-0.261Z" style="fill:rgb(64,64,64);fill-rule:nonzero;"/>
            </g>
            <g transform="matrix(161.27,0,0,161.27,220.456,0)">
                <path d="M0.449,-0.347C0.418,-0.368 0.386,-0.379 0.354,-0.379C0.337,-0.379 0.321,-0.376 0.306,-0.37C0.291,-0.364 0.277,-0.356 0.266,-0.345C0.255,-0.334 0.246,-0.321 0.24,-0.306C0.233,-0.291 0.23,-0.274 0.23,-0.255C0.23,-0.237 0.233,-0.221 0.24,-0.206C0.246,-0.191 0.255,-0.178 0.266,-0.167C0.277,-0.156 0.29,-0.147 0.305,-0.141C0.32,-0.135 0.337,-0.132 0.354,-0.132C0.388,-0.132 0.42,-0.144 0.449,-0.167L0.449,-0.013C0.404,0.006 0.362,0.016 0.322,0.016C0.285,0.016 0.249,0.01 0.216,-0.003C0.182,-0.016 0.152,-0.034 0.127,-0.058C0.101,-0.081 0.08,-0.11 0.065,-0.143C0.05,-0.175 0.042,-0.212 0.042,-0.253C0.042,-0.294 0.049,-0.331 0.064,-0.365C0.079,-0.398 0.099,-0.427 0.124,-0.452C0.149,-0.476 0.18,-0.495 0.215,-0.509C0.25,-0.522 0.287,-0.529 0.327,-0.529C0.371,-0.529 0.412,-0.52 0.449,-0.501L0.449,-0.347Z" style="fill:rgb(64,64,64);fill-rule:nonzero;"/>
            </g>
        </g>
        <g transform="matrix(1,0,0,1,535.81,543.33)">
            <g transform="matrix(161.27,0,0,161.27,0,0)">
                <path d="M0.243,-0.83L0.243,-0.328L0.433,-0.513L0.681,-0.513L0.424,-0.276L0.696,-0L0.442,-0L0.243,-0.209L0.243,-0L0.062,-0L0.062,-0.83L0.243,-0.83Z" style="fill:rgb(64,64,64);fill-rule:nonzero;"/>
            </g>
            <g transform="matrix(161.27,0,0,161.27,112.566,0)">
                <path d="M0.471,-0.255C0.471,-0.271 0.468,-0.286 0.463,-0.301C0.457,-0.315 0.449,-0.327 0.438,-0.338C0.427,-0.349 0.415,-0.357 0.401,-0.364C0.386,-0.37 0.371,-0.373 0.354,-0.373C0.338,-0.373 0.323,-0.37 0.309,-0.364C0.295,-0.358 0.283,-0.35 0.273,-0.339C0.262,-0.328 0.254,-0.316 0.248,-0.302C0.241,-0.287 0.238,-0.272 0.238,-0.256C0.238,-0.24 0.241,-0.225 0.247,-0.211C0.253,-0.197 0.261,-0.185 0.272,-0.175C0.283,-0.164 0.295,-0.156 0.31,-0.15C0.324,-0.143 0.339,-0.14 0.355,-0.14C0.371,-0.14 0.386,-0.143 0.4,-0.149C0.414,-0.155 0.426,-0.163 0.437,-0.174C0.447,-0.185 0.455,-0.197 0.462,-0.211C0.468,-0.225 0.471,-0.24 0.471,-0.255ZM0.243,0.256L0.062,0.256L0.062,-0.513L0.243,-0.513L0.243,-0.456C0.282,-0.505 0.334,-0.529 0.401,-0.529C0.438,-0.529 0.472,-0.522 0.504,-0.508C0.535,-0.493 0.563,-0.474 0.586,-0.449C0.609,-0.424 0.627,-0.395 0.641,-0.362C0.654,-0.329 0.66,-0.293 0.66,-0.255C0.66,-0.217 0.654,-0.182 0.641,-0.149C0.627,-0.116 0.61,-0.088 0.587,-0.063C0.564,-0.038 0.536,-0.019 0.505,-0.005C0.474,0.009 0.44,0.016 0.403,0.016C0.339,0.016 0.286,-0.006 0.243,-0.05L0.243,0.256Z" style="fill:rgb(64,64,64);fill-rule:nonzero;"/>
            </g>
            <g transform="matrix(161.27,0,0,161.27,225.617,0)">
                <path d="M0.243,-0.513L0.243,-0L0.062,-0L0.062,-0.513L0.243,-0.513ZM0.05,-0.71C0.05,-0.724 0.053,-0.737 0.058,-0.75C0.063,-0.762 0.071,-0.773 0.08,-0.782C0.089,-0.791 0.1,-0.799 0.113,-0.804C0.125,-0.809 0.138,-0.812 0.152,-0.812C0.166,-0.812 0.179,-0.809 0.192,-0.804C0.204,-0.799 0.215,-0.791 0.224,-0.782C0.233,-0.773 0.241,-0.762 0.246,-0.75C0.251,-0.737 0.254,-0.724 0.254,-0.71C0.254,-0.696 0.251,-0.683 0.246,-0.671C0.241,-0.658 0.233,-0.647 0.224,-0.638C0.215,-0.629 0.204,-0.621 0.192,-0.616C0.179,-0.611 0.166,-0.608 0.152,-0.608C0.138,-0.608 0.125,-0.611 0.113,-0.616C0.1,-0.621 0.089,-0.629 0.08,-0.638C0.071,-0.647 0.063,-0.658 0.058,-0.671C0.053,-0.683 0.05,-0.696 0.05,-0.71Z" style="fill:rgb(64,64,64);fill-rule:nonzero;"/>
            </g>
            <g transform="matrix(161.27,0,0,161.27,274.804,0)">
                <path d="M0.264,-0.362L0.264,-0L0.083,-0L0.083,-0.362L0.023,-0.362L0.023,-0.513L0.083,-0.513L0.083,-0.667L0.264,-0.667L0.264,-0.513L0.367,-0.513L0.367,-0.362L0.264,-0.362Z" style="fill:rgb(64,64,64);fill-rule:nonzero;"/>
            </g>
        </g>
    </g>
    <g transform="matrix(1,0,0,1,127.16,403.88)">
        <g transform="matrix(161.27,0,0,161.27,0,0)">
            <path d="M0.622,-0.502C0.577,-0.557 0.521,-0.585 0.454,-0.585C0.425,-0.585 0.398,-0.58 0.373,-0.569C0.347,-0.558 0.326,-0.544 0.308,-0.526C0.29,-0.507 0.276,-0.485 0.266,-0.46C0.255,-0.435 0.25,-0.407 0.25,-0.378C0.25,-0.348 0.255,-0.32 0.266,-0.295C0.276,-0.27 0.29,-0.248 0.309,-0.229C0.327,-0.21 0.348,-0.196 0.373,-0.185C0.398,-0.174 0.424,-0.169 0.453,-0.169C0.516,-0.169 0.572,-0.196 0.622,-0.249L0.622,-0.017L0.602,-0.01C0.572,0.001 0.544,0.009 0.518,0.014C0.492,0.019 0.466,0.021 0.441,0.021C0.389,0.021 0.339,0.011 0.292,-0.009C0.244,-0.028 0.202,-0.056 0.166,-0.092C0.129,-0.127 0.1,-0.169 0.078,-0.219C0.056,-0.268 0.045,-0.321 0.045,-0.379C0.045,-0.437 0.056,-0.49 0.078,-0.539C0.099,-0.587 0.128,-0.628 0.165,-0.664C0.201,-0.699 0.243,-0.726 0.291,-0.746C0.339,-0.765 0.389,-0.775 0.442,-0.775C0.472,-0.775 0.501,-0.772 0.531,-0.766C0.56,-0.759 0.59,-0.749 0.622,-0.736L0.622,-0.502Z" style="fill:rgb(64,64,64);fill-rule:nonzero;"/>
        </g>
        <g transform="matrix(161.27,0,0,161.27,107.567,0)">
            <rect x="0.062" y="-0.83" width="0.181" height="0.83" style="fill:rgb(64,64,64);fill-rule:nonzero;"/>
        </g>
        <g transform="matrix(161.27,0,0,161.27,156.754,0)">
            <path d="M0.243,-0.513L0.243,-0.224C0.243,-0.161 0.274,-0.129 0.335,-0.129C0.396,-0.129 0.427,-0.161 0.427,-0.224L0.427,-0.513L0.608,-0.513L0.608,-0.189C0.608,-0.12 0.585,-0.068 0.54,-0.033C0.494,0.002 0.426,0.019 0.335,0.019C0.244,0.019 0.176,0.002 0.131,-0.033C0.085,-0.068 0.062,-0.12 0.062,-0.189L0.062,-0.513L0.243,-0.513Z" style="fill:rgb(64,64,64);fill-rule:nonzero;"/>
        </g>
        <g transform="matrix(161.27,0,0,161.27,264.644,0)">
            <path d="M0.402,-0.381C0.369,-0.398 0.336,-0.407 0.304,-0.407C0.287,-0.407 0.274,-0.404 0.264,-0.397C0.253,-0.39 0.248,-0.381 0.248,-0.37C0.248,-0.364 0.249,-0.359 0.251,-0.356C0.252,-0.352 0.256,-0.348 0.262,-0.345C0.267,-0.342 0.276,-0.339 0.287,-0.336C0.298,-0.333 0.312,-0.33 0.33,-0.326C0.38,-0.316 0.417,-0.298 0.442,-0.273C0.467,-0.247 0.479,-0.214 0.479,-0.174C0.479,-0.144 0.473,-0.117 0.461,-0.093C0.449,-0.069 0.432,-0.049 0.411,-0.033C0.39,-0.016 0.364,-0.004 0.334,0.006C0.304,0.014 0.271,0.019 0.235,0.019C0.166,0.019 0.097,-0.001 0.03,-0.04L0.096,-0.168C0.147,-0.133 0.195,-0.116 0.24,-0.116C0.257,-0.116 0.27,-0.12 0.281,-0.127C0.292,-0.134 0.297,-0.144 0.297,-0.155C0.297,-0.162 0.296,-0.167 0.295,-0.172C0.293,-0.176 0.289,-0.18 0.284,-0.184C0.279,-0.187 0.271,-0.191 0.261,-0.194C0.25,-0.197 0.237,-0.2 0.22,-0.203C0.164,-0.214 0.125,-0.231 0.103,-0.254C0.08,-0.276 0.069,-0.307 0.069,-0.346C0.069,-0.375 0.074,-0.401 0.085,-0.424C0.096,-0.447 0.111,-0.466 0.131,-0.482C0.151,-0.498 0.175,-0.51 0.204,-0.519C0.232,-0.528 0.263,-0.532 0.298,-0.532C0.355,-0.532 0.41,-0.521 0.463,-0.499L0.402,-0.381Z" style="fill:rgb(64,64,64);fill-rule:nonzero;"/>
        </g>
    </g>
    <g transform="matrix(1,0,0,1,476.15,403.88)">
        <g transform="matrix(161.27,0,0,161.27,0,0)">
            <path d="M0.264,-0.362L0.264,-0L0.083,-0L0.083,-0.362L0.023,-0.362L0.023,-0.513L0.083,-0.513L0.083,-0.667L0.264,-0.667L0.264,-0.513L0.367,-0.513L0.367,-0.362L0.264,-0.362Z" style="fill:rgb(64,64,64);fill-rule:nonzero;"/>
        </g>
        <g transform="matrix(161.27,0,0,161.27,61.7664,0)">
            <path d="M0.437,-0.331C0.431,-0.356 0.419,-0.377 0.4,-0.392C0.381,-0.407 0.359,-0.415 0.332,-0.415C0.304,-0.415 0.281,-0.408 0.264,-0.393C0.246,-0.378 0.235,-0.358 0.23,-0.331L0.437,-0.331ZM0.225,-0.226C0.225,-0.148 0.262,-0.109 0.335,-0.109C0.374,-0.109 0.404,-0.125 0.424,-0.157L0.599,-0.157C0.564,-0.04 0.475,0.019 0.334,0.019C0.291,0.019 0.251,0.012 0.215,-0.001C0.179,-0.014 0.148,-0.032 0.123,-0.056C0.097,-0.08 0.077,-0.109 0.063,-0.142C0.049,-0.175 0.042,-0.213 0.042,-0.254C0.042,-0.297 0.049,-0.335 0.062,-0.37C0.075,-0.404 0.094,-0.433 0.119,-0.457C0.144,-0.481 0.173,-0.5 0.209,-0.513C0.244,-0.526 0.283,-0.532 0.327,-0.532C0.37,-0.532 0.409,-0.526 0.444,-0.513C0.479,-0.5 0.508,-0.481 0.532,-0.456C0.556,-0.431 0.574,-0.401 0.587,-0.366C0.6,-0.33 0.606,-0.29 0.606,-0.245L0.606,-0.226L0.225,-0.226Z" style="fill:rgb(64,64,64);fill-rule:nonzero;"/>
        </g>
    </g>
    <g transform="matrix(1,0,0,1,642.27,403.88)">
        <g transform="matrix(161.27,0,0,161.27,0,0)">
            <path d="M0.062,-0.513L0.243,-0.513L0.243,-0.429C0.262,-0.46 0.286,-0.483 0.314,-0.5C0.342,-0.516 0.375,-0.524 0.412,-0.524L0.428,-0.524C0.433,-0.524 0.44,-0.523 0.447,-0.522L0.447,-0.349C0.423,-0.361 0.397,-0.367 0.369,-0.367C0.327,-0.367 0.296,-0.355 0.275,-0.33C0.254,-0.305 0.243,-0.268 0.243,-0.22L0.243,-0L0.062,-0L0.062,-0.513Z" style="fill:rgb(64,64,64);fill-rule:nonzero;"/>
        </g>
    </g>
</svg>
