<?xml version="1.0" encoding="UTF-8"?>
<svg id="Ebene_1" data-name="Ebene 1" xmlns="http://www.w3.org/2000/svg" xmlns:xlink="http://www.w3.org/1999/xlink" viewBox="0 0 955.28 598.81">
  <defs>
    <style>
      .cls-1 {
        fill: #404040;
        font-family: Futura-Bold, Futura;
        font-size: 161.27px;
        font-weight: 700;
      }

      .cls-2 {
        fill: #d8e28e;
      }

      .cls-2, .cls-3, .cls-4, .cls-5, .cls-6, .cls-7, .cls-8, .cls-9, .cls-10, .cls-11, .cls-12, .cls-13 {
        stroke-width: 0px;
      }

      .cls-14 {
        clip-path: url(#clippath);
      }

      .cls-3 {
        fill: none;
      }

      .cls-4 {
        fill: #15994f;
      }

      .cls-5 {
        fill: #a6cb6c;
      }

      .cls-6 {
        fill: #ed6e44;
      }

      .cls-7 {
        fill: #026939;
      }

      .cls-8 {
        fill: #d63126;
      }

      .cls-9 {
        fill: #68b763;
      }

      .cls-10 {
        fill: #ffe08c;
      }

      .cls-11 {
        fill: #fbf6c1;
      }

      .cls-12 {
        fill: #a61829;
      }

      .cls-13 {
        fill: #f7ac62;
      }
    </style>
    <clipPath id="clippath">
      <rect class="cls-3" width="955.28" height="595.28"/>
    </clipPath>
  </defs>
  <g class="cls-14">
    <path class="cls-7" d="M907.98,249.46c3.25,43.13-5.77,93.4-22.43,144.61l-1.15,3.25h-85.89l.93-2.12c13.67-40.92,19.62-80.01,16.93-114l91.6-31.74Z"/>
    <path class="cls-7" d="M872.79,140.03c17.44,26.06,29.59,59.37,34.3,97.51l-91.84,32.88c-3.75-29.55-14.7-55.95-27.21-77.1l84.76-53.29Z"/>
    <path class="cls-4" d="M811.8,72.28c21.42,14.79,38.55,35.99,54.75,57.83l-84.19,54.14c-12.05-17.42-28.02-31.94-44.22-43.65l73.65-68.32Z"/>
    <path class="cls-9" d="M741.54,35.15c9.07,3.4,1.19.18,23.81,9.07,11.91,5.67,24.98,12.83,36.41,20.33l-73.42,69.45c-13.57-9.66-30.2-16.92-45.48-23.71l58.68-75.14Z"/>
    <path class="cls-5" d="M671.24,17.01c20.6,2.06,39.36,7.88,58.02,13.88l-57.46,75.12c-13.82-5.09-29.83-8.07-44.79-10.88l44.22-78.13Z"/>
    <path class="cls-2" d="M598.39,13.89c16.72-.28,15.31-.85,59.85,1.52l-43.97,77.28c-14.46-2.27-29.38-2.65-44.5-3.1l28.63-75.71Z"/>
    <path class="cls-11" d="M585.64,14.46l-28.63,75.4-9.64.57c-29.48,1.98-13.04,0-34.87,1.98l13.61-68.6c19.28-3.97,40.12-7.81,59.53-9.35"/>
    <path class="cls-12" d="M118.86,254.55l25.43,11.05c-37.98,39.68-72.63,81.28-101.48,131.72h-9.07c19.68-51,49.06-100.1,85.13-142.77"/>
    <path class="cls-10" d="M513.65,25.37l-13.05,68.17c-28.91,2.84-11.07.92-54.42,6.24l-1.42-57.26c23.46-6.91,46.2-13.61,68.89-17.15"/>
    <path class="cls-13" d="M433.04,45.91l2.36,55.57c-22.27,4.41-45.96,11.09-69.45,19.27l-13.95-43.91c27.28-12.35,54.62-23.65,81.04-30.94"/>
    <path class="cls-6" d="M341.15,81.5l14.32,43.23c-28.91,10.77-57.83,26.65-87.31,44.5l-26.08-30.82c32.69-23.76,66.44-40.55,99.07-56.91"/>
    <path class="cls-8" d="M233.01,145.7l26.08,29.48c-35.65,21.51-72.52,49.26-106.87,80.79l-26.36-11.2c34.13-36.74,70.44-72.14,107.15-99.07"/>
    <text class="cls-1" transform="translate(232.29 543.33)"><tspan x="0" y="0">Coc</tspan></text>
    <text class="cls-1" transform="translate(535.81 543.33)"><tspan x="0" y="0">kpit</tspan></text>
  </g>
  <text class="cls-1" transform="translate(127.16 403.88)"><tspan x="0" y="0">Clus</tspan></text>
  <text class="cls-1" transform="translate(476.15 403.88)"><tspan x="0" y="0">te</tspan></text>
  <text class="cls-1" transform="translate(642.27 403.88)"><tspan x="0" y="0">r</tspan></text>
</svg>